<svg xmlns="http://www.w3.org/2000/svg" xmlns:xlink="http://www.w3.org/1999/xlink" width="800" height="600" viewBox="0 0 800 600"><defs><clipPath id="a"><rect width="712" height="151" fill="none"/></clipPath><clipPath id="b"><rect width="56" height="224" fill="none"/></clipPath><clipPath id="c"><rect width="630" height="20" fill="none"/></clipPath><clipPath id="d"><rect width="712" height="20" fill="none"/></clipPath><clipPath id="e"><rect width="630" height="260" fill="none"/></clipPath><clipPath id="g"><rect width="800" height="600"/></clipPath></defs><g id="f" clip-path="url(#g)"><rect width="800" height="600" fill="#1c1c1c"/><g transform="translate(9 15)"><g transform="translate(35 414)" clip-path="url(#a)"><g transform="translate(-51 -400)"><g transform="translate(51 400)" fill="#515151" stroke="#fff" stroke-width="2"><rect width="56" height="150" stroke="none"/><rect x="1" y="1" width="54" height="148" fill="none"/></g></g><g transform="translate(31 -400)"><g transform="translate(51 400)" fill="#515151" stroke="#fff" stroke-width="2"><rect width="56" height="150" stroke="none"/><rect x="1" y="1" width="54" height="148" fill="none"/></g></g><g transform="translate(113 -400)"><g transform="translate(51 400)" fill="#515151" stroke="#fff" stroke-width="2"><rect width="56" height="150" stroke="none"/><rect x="1" y="1" width="54" height="148" fill="none"/></g></g><g transform="translate(195 -400)"><g transform="translate(51 400)" fill="#515151" stroke="#fff" stroke-width="2"><rect width="56" height="150" stroke="none"/><rect x="1" y="1" width="54" height="148" fill="none"/></g></g><g transform="translate(277 -400)"><g transform="translate(51 400)" fill="#515151" stroke="#fff" stroke-width="2"><rect width="56" height="150" stroke="none"/><rect x="1" y="1" width="54" height="148" fill="none"/></g></g><g transform="translate(359 -400)"><g transform="translate(51 400)" fill="#515151" stroke="#fff" stroke-width="2"><rect width="56" height="150" stroke="none"/><rect x="1" y="1" width="54" height="148" fill="none"/></g></g><g transform="translate(441 -400)"><g transform="translate(51 400)" fill="#515151" stroke="#fff" stroke-width="2"><rect width="56" height="150" stroke="none"/><rect x="1" y="1" width="54" height="148" fill="none"/></g></g><g transform="translate(523 -400)"><g transform="translate(51 400)" fill="#515151" stroke="#fff" stroke-width="2"><rect width="56" height="150" stroke="none"/><rect x="1" y="1" width="54" height="148" fill="none"/></g></g><g transform="translate(605 -400)"><g transform="translate(51 400)" fill="#515151" stroke="#fff" stroke-width="2"><rect width="56" height="150" stroke="none"/><rect x="1" y="1" width="54" height="148" fill="none"/></g></g></g><g transform="translate(-9 -15)"><text transform="translate(72 510)" fill="#fff" font-size="20" font-family="Arial-BoldMT, Arial" font-weight="700" letter-spacing="-0.055em"><tspan x="-10.573" y="0">19</tspan></text><text transform="translate(154 510)" fill="#fff" font-size="20" font-family="Arial-BoldMT, Arial" font-weight="700" letter-spacing="-0.055em"><tspan x="-10.573" y="0">23</tspan></text><text transform="translate(236 510)" fill="#fff" font-size="20" font-family="Arial-BoldMT, Arial" font-weight="700" letter-spacing="-0.055em"><tspan x="-10.573" y="0">27</tspan></text><text transform="translate(318 510)" fill="#fff" font-size="20" font-family="Arial-BoldMT, Arial" font-weight="700" letter-spacing="-0.055em"><tspan x="-10.573" y="0">31</tspan></text><text transform="translate(400 510)" fill="#fff" font-size="20" font-family="Arial-BoldMT, Arial" font-weight="700" letter-spacing="-0.055em"><tspan x="-10.573" y="0">49</tspan></text><text transform="translate(482 510)" fill="#fff" font-size="20" font-family="Arial-BoldMT, Arial" font-weight="700" letter-spacing="-0.055em"><tspan x="-10.573" y="0">53</tspan></text><text transform="translate(564 510)" fill="#fff" font-size="20" font-family="Arial-BoldMT, Arial" font-weight="700" letter-spacing="-0.055em"><tspan x="-10.573" y="0">57</tspan></text><text transform="translate(646 510)" fill="#fff" font-size="20" font-family="Arial-BoldMT, Arial" font-weight="700" letter-spacing="-0.055em"><tspan x="-10.573" y="0">61</tspan></text><text transform="translate(728 510)" fill="#fff" font-size="20" font-family="Arial-BoldMT, Arial" font-weight="700" letter-spacing="-0.055em"><tspan x="-10.573" y="0">62</tspan></text></g><g transform="translate(691 72)" clip-path="url(#b)"><g transform="translate(-691 -276)"><g transform="translate(691 276)" fill="#515151" stroke="#fff" stroke-width="2"><rect width="56" height="20" stroke="none"/><rect x="1" y="1" width="54" height="18" fill="none"/></g></g><g transform="translate(-691 -174)"><g transform="translate(691 276)" fill="#515151" stroke="#fff" stroke-width="2"><rect width="56" height="20" stroke="none"/><rect x="1" y="1" width="54" height="18" fill="none"/></g></g><g transform="translate(-691 -72)"><g transform="translate(691 276)" fill="#515151" stroke="#fff" stroke-width="2"><rect width="56" height="20" stroke="none"/><rect x="1" y="1" width="54" height="18" fill="none"/></g></g></g><g transform="translate(-9 -15)"><text transform="translate(728 102)" fill="#fff" font-size="14" font-family="Arial-BoldMT, Arial" font-weight="700" letter-spacing="-0.055em"><tspan x="-12.837" y="0">ALL</tspan></text><text transform="translate(728 204)" fill="#fff" font-size="14" font-family="Arial-BoldMT, Arial" font-weight="700" letter-spacing="-0.055em"><tspan x="-7.401" y="0">25</tspan></text><text transform="translate(728 306)" fill="#fff" font-size="14" font-family="Arial-BoldMT, Arial" font-weight="700" letter-spacing="-0.055em"><tspan x="-7.401" y="0">26</tspan></text></g><g transform="translate(35 370)" clip-path="url(#c)"><g transform="translate(-35 -338)"><g transform="translate(35 338)" fill="#515151" stroke="#fff" stroke-width="2"><rect width="56" height="20" stroke="none"/><rect x="1" y="1" width="54" height="18" fill="none"/></g></g><g transform="translate(47 -338)"><g transform="translate(35 338)" fill="#515151" stroke="#fff" stroke-width="2"><rect width="56" height="20" stroke="none"/><rect x="1" y="1" width="54" height="18" fill="none"/></g></g><g transform="translate(129 -338)"><g transform="translate(35 338)" fill="#515151" stroke="#fff" stroke-width="2"><rect width="56" height="20" stroke="none"/><rect x="1" y="1" width="54" height="18" fill="none"/></g></g><g transform="translate(211 -338)"><g transform="translate(35 338)" fill="#515151" stroke="#fff" stroke-width="2"><rect width="56" height="20" stroke="none"/><rect x="1" y="1" width="54" height="18" fill="none"/></g></g><g transform="translate(293 -338)"><g transform="translate(35 338)" fill="#515151" stroke="#fff" stroke-width="2"><rect width="56" height="20" stroke="none"/><rect x="1" y="1" width="54" height="18" fill="none"/></g></g><g transform="translate(375 -338)"><g transform="translate(35 338)" fill="#515151" stroke="#fff" stroke-width="2"><rect width="56" height="20" stroke="none"/><rect x="1" y="1" width="54" height="18" fill="none"/></g></g><g transform="translate(457 -338)"><g transform="translate(35 338)" fill="#515151" stroke="#fff" stroke-width="2"><rect width="56" height="20" stroke="none"/><rect x="1" y="1" width="54" height="18" fill="none"/></g></g><g transform="translate(539 -338)"><g transform="translate(35 338)" fill="#515151" stroke="#fff" stroke-width="2"><rect width="56" height="20" stroke="none"/><rect x="1" y="1" width="54" height="18" fill="none"/></g></g></g><g transform="translate(0 32)"><text transform="translate(63 353)" fill="#fff" font-size="14" font-family="Arial-BoldMT, Arial" font-weight="700" letter-spacing="-0.055em"><tspan x="-7.401" y="0">03</tspan></text><text transform="translate(391 353)" fill="#fff" font-size="14" font-family="Arial-BoldMT, Arial" font-weight="700" letter-spacing="-0.055em"><tspan x="-7.401" y="0">15</tspan></text><text transform="translate(227 353)" fill="#fff" font-size="14" font-family="Arial-BoldMT, Arial" font-weight="700" letter-spacing="-0.055em"><tspan x="-7.401" y="0">09</tspan></text><text transform="translate(555 353)" fill="#fff" font-size="14" font-family="Arial-BoldMT, Arial" font-weight="700" letter-spacing="-0.055em"><tspan x="-7.401" y="0">21</tspan></text><text transform="translate(145 353)" fill="#fff" font-size="14" font-family="Arial-BoldMT, Arial" font-weight="700" letter-spacing="-0.055em"><tspan x="-7.401" y="0">06</tspan></text><text transform="translate(473 353)" fill="#fff" font-size="14" font-family="Arial-BoldMT, Arial" font-weight="700" letter-spacing="-0.055em"><tspan x="-7.401" y="0">18</tspan></text><text transform="translate(309 353)" fill="#fff" font-size="14" font-family="Arial-BoldMT, Arial" font-weight="700" letter-spacing="-0.055em"><tspan x="-7.401" y="0">12</tspan></text><text transform="translate(637 353)" fill="#fff" font-size="14" font-family="Arial-BoldMT, Arial" font-weight="700" letter-spacing="-0.055em"><tspan x="-7.401" y="0">24</tspan></text></g><g transform="translate(35 338)" clip-path="url(#d)"><g transform="translate(-35 -338)"><g transform="translate(35 338)" fill="#515151" stroke="#fff" stroke-width="2"><rect width="56" height="20" stroke="none"/><rect x="1" y="1" width="54" height="18" fill="none"/></g></g><g transform="translate(47 -338)"><g transform="translate(35 338)" fill="#515151" stroke="#fff" stroke-width="2"><rect width="56" height="20" stroke="none"/><rect x="1" y="1" width="54" height="18" fill="none"/></g></g><g transform="translate(129 -338)"><g transform="translate(35 338)" fill="#515151" stroke="#fff" stroke-width="2"><rect width="56" height="20" stroke="none"/><rect x="1" y="1" width="54" height="18" fill="none"/></g></g><g transform="translate(211 -338)"><g transform="translate(35 338)" fill="#515151" stroke="#fff" stroke-width="2"><rect width="56" height="20" stroke="none"/><rect x="1" y="1" width="54" height="18" fill="none"/></g></g><g transform="translate(293 -338)"><g transform="translate(35 338)" fill="#515151" stroke="#fff" stroke-width="2"><rect width="56" height="20" stroke="none"/><rect x="1" y="1" width="54" height="18" fill="none"/></g></g><g transform="translate(375 -338)"><g transform="translate(35 338)" fill="#515151" stroke="#fff" stroke-width="2"><rect width="56" height="20" stroke="none"/><rect x="1" y="1" width="54" height="18" fill="none"/></g></g><g transform="translate(457 -338)"><g transform="translate(35 338)" fill="#515151" stroke="#fff" stroke-width="2"><rect width="56" height="20" stroke="none"/><rect x="1" y="1" width="54" height="18" fill="none"/></g></g><g transform="translate(539 -338)"><g transform="translate(35 338)" fill="#515151" stroke="#fff" stroke-width="2"><rect width="56" height="20" stroke="none"/><rect x="1" y="1" width="54" height="18" fill="none"/></g></g><g transform="translate(621 -338)"><g transform="translate(35 338)" fill="#515151" stroke="#fff" stroke-width="2"><rect width="56" height="20" stroke="none"/><rect x="1" y="1" width="54" height="18" fill="none"/></g></g></g><text transform="translate(63 353)" fill="#fff" font-size="14" font-family="Arial-BoldMT, Arial" font-weight="700" letter-spacing="-0.055em"><tspan x="-15.977" y="0">01/02</tspan></text><text transform="translate(391 353)" fill="#fff" font-size="14" font-family="Arial-BoldMT, Arial" font-weight="700" letter-spacing="-0.055em"><tspan x="-15.977" y="0">13/14</tspan></text><text transform="translate(227 353)" fill="#fff" font-size="14" font-family="Arial-BoldMT, Arial" font-weight="700" letter-spacing="-0.055em"><tspan x="-15.977" y="0">07/08</tspan></text><text transform="translate(555 353)" fill="#fff" font-size="14" font-family="Arial-BoldMT, Arial" font-weight="700" letter-spacing="-0.055em"><tspan x="-15.977" y="0">19/20</tspan></text><text transform="translate(145 353)" fill="#fff" font-size="14" font-family="Arial-BoldMT, Arial" font-weight="700" letter-spacing="-0.055em"><tspan x="-15.977" y="0">04/05</tspan></text><text transform="translate(473 353)" fill="#fff" font-size="14" font-family="Arial-BoldMT, Arial" font-weight="700" letter-spacing="-0.055em"><tspan x="-15.977" y="0">16/17</tspan></text><text transform="translate(309 353)" fill="#fff" font-size="14" font-family="Arial-BoldMT, Arial" font-weight="700" letter-spacing="-0.055em"><tspan x="-15.591" y="0">10/11</tspan></text><text transform="translate(637 353)" fill="#fff" font-size="14" font-family="Arial-BoldMT, Arial" font-weight="700" letter-spacing="-0.055em"><tspan x="-15.977" y="0">22/23</tspan></text><text transform="translate(719 353)" fill="#fff" font-size="14" font-family="Arial-BoldMT, Arial" font-weight="700" letter-spacing="-0.055em"><tspan x="-7.401" y="0">27</tspan></text><g transform="translate(35 54)" clip-path="url(#e)"><g transform="translate(-35 -32)"><g transform="translate(35 32)" fill="#515151" stroke="#fff" stroke-width="2"><circle cx="28" cy="28" r="28" stroke="none"/><circle cx="28" cy="28" r="27" fill="none"/></g></g><g transform="translate(47 -32)"><g transform="translate(35 32)" fill="#515151" stroke="#fff" stroke-width="2"><circle cx="28" cy="28" r="28" stroke="none"/><circle cx="28" cy="28" r="27" fill="none"/></g></g><g transform="translate(129 -32)"><g transform="translate(35 32)" fill="#515151" stroke="#fff" stroke-width="2"><circle cx="28" cy="28" r="28" stroke="none"/><circle cx="28" cy="28" r="27" fill="none"/></g></g><g transform="translate(211 -32)"><g transform="translate(35 32)" fill="#515151" stroke="#fff" stroke-width="2"><circle cx="28" cy="28" r="28" stroke="none"/><circle cx="28" cy="28" r="27" fill="none"/></g></g><g transform="translate(293 -32)"><g transform="translate(35 32)" fill="#515151" stroke="#fff" stroke-width="2"><circle cx="28" cy="28" r="28" stroke="none"/><circle cx="28" cy="28" r="27" fill="none"/></g></g><g transform="translate(375 -32)"><g transform="translate(35 32)" fill="#515151" stroke="#fff" stroke-width="2"><circle cx="28" cy="28" r="28" stroke="none"/><circle cx="28" cy="28" r="27" fill="none"/></g></g><g transform="translate(457 -32)"><g transform="translate(35 32)" fill="#515151" stroke="#fff" stroke-width="2"><circle cx="28" cy="28" r="28" stroke="none"/><circle cx="28" cy="28" r="27" fill="none"/></g></g><g transform="translate(539 -32)"><g transform="translate(35 32)" fill="#515151" stroke="#fff" stroke-width="2"><circle cx="28" cy="28" r="28" stroke="none"/><circle cx="28" cy="28" r="27" fill="none"/></g></g><g transform="translate(-35 70)"><g transform="translate(35 32)" fill="#515151" stroke="#fff" stroke-width="2"><circle cx="28" cy="28" r="28" stroke="none"/><circle cx="28" cy="28" r="27" fill="none"/></g></g><g transform="translate(47 70)"><g transform="translate(35 32)" fill="#515151" stroke="#fff" stroke-width="2"><circle cx="28" cy="28" r="28" stroke="none"/><circle cx="28" cy="28" r="27" fill="none"/></g></g><g transform="translate(129 70)"><g transform="translate(35 32)" fill="#515151" stroke="#fff" stroke-width="2"><circle cx="28" cy="28" r="28" stroke="none"/><circle cx="28" cy="28" r="27" fill="none"/></g></g><g transform="translate(211 70)"><g transform="translate(35 32)" fill="#515151" stroke="#fff" stroke-width="2"><circle cx="28" cy="28" r="28" stroke="none"/><circle cx="28" cy="28" r="27" fill="none"/></g></g><g transform="translate(293 70)"><g transform="translate(35 32)" fill="#515151" stroke="#fff" stroke-width="2"><circle cx="28" cy="28" r="28" stroke="none"/><circle cx="28" cy="28" r="27" fill="none"/></g></g><g transform="translate(375 70)"><g transform="translate(35 32)" fill="#515151" stroke="#fff" stroke-width="2"><circle cx="28" cy="28" r="28" stroke="none"/><circle cx="28" cy="28" r="27" fill="none"/></g></g><g transform="translate(457 70)"><g transform="translate(35 32)" fill="#515151" stroke="#fff" stroke-width="2"><circle cx="28" cy="28" r="28" stroke="none"/><circle cx="28" cy="28" r="27" fill="none"/></g></g><g transform="translate(539 70)"><g transform="translate(35 32)" fill="#515151" stroke="#fff" stroke-width="2"><circle cx="28" cy="28" r="28" stroke="none"/><circle cx="28" cy="28" r="27" fill="none"/></g></g><g transform="translate(-35 172)"><g transform="translate(35 32)" fill="#515151" stroke="#fff" stroke-width="2"><circle cx="28" cy="28" r="28" stroke="none"/><circle cx="28" cy="28" r="27" fill="none"/></g></g><g transform="translate(47 172)"><g transform="translate(35 32)" fill="#515151" stroke="#fff" stroke-width="2"><circle cx="28" cy="28" r="28" stroke="none"/><circle cx="28" cy="28" r="27" fill="none"/></g></g><g transform="translate(129 172)"><g transform="translate(35 32)" fill="#515151" stroke="#fff" stroke-width="2"><circle cx="28" cy="28" r="28" stroke="none"/><circle cx="28" cy="28" r="27" fill="none"/></g></g><g transform="translate(211 172)"><g transform="translate(35 32)" fill="#515151" stroke="#fff" stroke-width="2"><circle cx="28" cy="28" r="28" stroke="none"/><circle cx="28" cy="28" r="27" fill="none"/></g></g><g transform="translate(293 172)"><g transform="translate(35 32)" fill="#515151" stroke="#fff" stroke-width="2"><circle cx="28" cy="28" r="28" stroke="none"/><circle cx="28" cy="28" r="27" fill="none"/></g></g><g transform="translate(375 172)"><g transform="translate(35 32)" fill="#515151" stroke="#fff" stroke-width="2"><circle cx="28" cy="28" r="28" stroke="none"/><circle cx="28" cy="28" r="27" fill="none"/></g></g><g transform="translate(457 172)"><g transform="translate(35 32)" fill="#515151" stroke="#fff" stroke-width="2"><circle cx="28" cy="28" r="28" stroke="none"/><circle cx="28" cy="28" r="27" fill="none"/></g></g><g transform="translate(539 172)"><g transform="translate(35 32)" fill="#515151" stroke="#fff" stroke-width="2"><circle cx="28" cy="28" r="28" stroke="none"/><circle cx="28" cy="28" r="27" fill="none"/></g></g></g><g transform="translate(-9 -15)"><text transform="translate(72 104)" fill="#fff" font-size="20" font-family="Arial-BoldMT, Arial" font-weight="700" letter-spacing="-0.055em"><tspan x="-10.573" y="0">16</tspan></text><text transform="translate(154 104)" fill="#fff" font-size="20" font-family="Arial-BoldMT, Arial" font-weight="700" letter-spacing="-0.055em"><tspan x="-10.573" y="0">20</tspan></text><text transform="translate(236 104)" fill="#fff" font-size="20" font-family="Arial-BoldMT, Arial" font-weight="700" letter-spacing="-0.055em"><tspan x="-10.573" y="0">24</tspan></text><text transform="translate(318 104)" fill="#fff" font-size="20" font-family="Arial-BoldMT, Arial" font-weight="700" letter-spacing="-0.055em"><tspan x="-10.573" y="0">28</tspan></text><text transform="translate(400 104)" fill="#fff" font-size="20" font-family="Arial-BoldMT, Arial" font-weight="700" letter-spacing="-0.055em"><tspan x="-10.573" y="0">46</tspan></text><text transform="translate(482 104)" fill="#fff" font-size="20" font-family="Arial-BoldMT, Arial" font-weight="700" letter-spacing="-0.055em"><tspan x="-10.573" y="0">50</tspan></text><text transform="translate(564 104)" fill="#fff" font-size="20" font-family="Arial-BoldMT, Arial" font-weight="700" letter-spacing="-0.055em"><tspan x="-10.573" y="0">54</tspan></text><text transform="translate(646 104)" fill="#fff" font-size="20" font-family="Arial-BoldMT, Arial" font-weight="700" letter-spacing="-0.055em"><tspan x="-10.573" y="0">58</tspan></text><text transform="translate(72 206)" fill="#fff" font-size="20" font-family="Arial-BoldMT, Arial" font-weight="700" letter-spacing="-0.055em"><tspan x="-10.573" y="0">17</tspan></text><text transform="translate(154 206)" fill="#fff" font-size="20" font-family="Arial-BoldMT, Arial" font-weight="700" letter-spacing="-0.055em"><tspan x="-10.573" y="0">21</tspan></text><text transform="translate(236 206)" fill="#fff" font-size="20" font-family="Arial-BoldMT, Arial" font-weight="700" letter-spacing="-0.055em"><tspan x="-10.573" y="0">25</tspan></text><text transform="translate(318 206)" fill="#fff" font-size="20" font-family="Arial-BoldMT, Arial" font-weight="700" letter-spacing="-0.055em"><tspan x="-10.573" y="0">29</tspan></text><text transform="translate(400 206)" fill="#fff" font-size="20" font-family="Arial-BoldMT, Arial" font-weight="700" letter-spacing="-0.055em"><tspan x="-10.573" y="0">47</tspan></text><text transform="translate(482 206)" fill="#fff" font-size="20" font-family="Arial-BoldMT, Arial" font-weight="700" letter-spacing="-0.055em"><tspan x="-10.573" y="0">51</tspan></text><text transform="translate(564 206)" fill="#fff" font-size="20" font-family="Arial-BoldMT, Arial" font-weight="700" letter-spacing="-0.055em"><tspan x="-10.573" y="0">55</tspan></text><text transform="translate(646 206)" fill="#fff" font-size="20" font-family="Arial-BoldMT, Arial" font-weight="700" letter-spacing="-0.055em"><tspan x="-10.573" y="0">59</tspan></text><text transform="translate(72 308)" fill="#fff" font-size="20" font-family="Arial-BoldMT, Arial" font-weight="700" letter-spacing="-0.055em"><tspan x="-10.573" y="0">18</tspan></text><text transform="translate(154 308)" fill="#fff" font-size="20" font-family="Arial-BoldMT, Arial" font-weight="700" letter-spacing="-0.055em"><tspan x="-10.573" y="0">22</tspan></text><text transform="translate(236 308)" fill="#fff" font-size="20" font-family="Arial-BoldMT, Arial" font-weight="700" letter-spacing="-0.055em"><tspan x="-10.573" y="0">26</tspan></text><text transform="translate(318 308)" fill="#fff" font-size="20" font-family="Arial-BoldMT, Arial" font-weight="700" letter-spacing="-0.055em"><tspan x="-10.573" y="0">30</tspan></text><text transform="translate(400 308)" fill="#fff" font-size="20" font-family="Arial-BoldMT, Arial" font-weight="700" letter-spacing="-0.055em"><tspan x="-10.573" y="0">48</tspan></text><text transform="translate(482 308)" fill="#fff" font-size="20" font-family="Arial-BoldMT, Arial" font-weight="700" letter-spacing="-0.055em"><tspan x="-10.573" y="0">52</tspan></text><text transform="translate(564 308)" fill="#fff" font-size="20" font-family="Arial-BoldMT, Arial" font-weight="700" letter-spacing="-0.055em"><tspan x="-10.573" y="0">56</tspan></text><text transform="translate(646 308)" fill="#fff" font-size="20" font-family="Arial-BoldMT, Arial" font-weight="700" letter-spacing="-0.055em"><tspan x="-10.573" y="0">60</tspan></text></g></g><g style="isolation:isolate"><path d="M30.323,9H23.33V-2.979a11.375,11.375,0,0,1,.435-2.638l-6.279,12.4h-3.7l-6.31-12.4a11.715,11.715,0,0,1,.435,2.638V9H.918V-15.283h6.87L15.434-1.861a3.337,3.337,0,0,1,.187,1.1,4.717,4.717,0,0,1,.187-1.1l7.647-13.422h6.87Zm9.709,0H32.759V-15.283h7.274ZM66.745,4.423q0,2.141-2.549,3.359A16.13,16.13,0,0,1,57.327,9H42.5V-15.283H57.327A15.952,15.952,0,0,1,64.2-14.05q2.549,1.234,2.549,3.375Zm-7.3-.605V-10.132q0-2.033-4.259-2.033H49.773V5.881H55Q59.441,5.881,59.441,3.818ZM76.268,9H68.995V-15.283h7.274Zm31.872,0h-6.994V-2.979a11.374,11.374,0,0,1,.435-2.638L95.3,6.781H91.6l-6.31-12.4a11.715,11.715,0,0,1,.435,2.638V9H78.735V-15.283H85.6L93.251-1.861a3.337,3.337,0,0,1,.187,1.1,4.718,4.718,0,0,1,.187-1.1l7.647-13.422h6.87Zm9.709,0h-7.274V-15.283h7.274Zm26.712,0H136.7L131.352.451,125.974,9h-7.74V8.876l9.077-12.3q-8.548-11.793-8.517-11.855h7.771l4.849,7.913,4.88-7.913H144v.14L135.486-3.522Z" transform="translate(588.761 36)" fill="#fff"/><g style="isolation:isolate"><path d="M61.136,8H0V0H61.136V8ZM54.591,1.607v5.3h3.755V6.2H56.021V1.607ZM50.987,5.9h1.789l.287,1.006H54.48L52.642,1.6h-1.5L49.29,6.893v.013H50.7L50.987,5.9ZM45.642,3.578l2.285,3.329h1.251v-5.3H47.785V4.492a1.174,1.174,0,0,0,.092.383l-2.29-3.268H44.337v5.3h1.391V3.954a1.15,1.15,0,0,0-.088-.375ZM39.908,1.607c-.563,0-.849.164-.849.488V6.422c0,.321.286.484.849.484h3.1c.576,0,.868-.163.868-.484V2.094c0-.324-.292-.488-.868-.488Zm-2.761,0v5.3h1.428v-5.3ZM32.071,5.159V6.422c0,.321.29.484.861.484h2.875c.575,0,.867-.163.867-.484V5.159a.486.486,0,0,0-.311-.429L33.5,3.232V2.274h1.746v1h1.428V2.088c0-.319-.292-.481-.867-.481H32.932c-.572,0-.861.164-.861.488V3.273a.489.489,0,0,0,.311.423l2.864,1.5V6.24H33.5V5.159Zm-5.026,0V6.422c0,.321.29.484.861.484h2.875c.575,0,.867-.163.867-.484V5.159a.487.487,0,0,0-.311-.429l-2.864-1.5V2.274h1.746v1h1.429V2.088c0-.319-.292-.481-.867-.481H27.905c-.572,0-.861.164-.861.488V3.273a.488.488,0,0,0,.311.423l2.863,1.5V6.24H28.472V5.159ZM22.817,1.607v5.3H26.78v-.7H24.246V4.543H26.4V3.856H24.246V2.308h2.5v-.7Zm-4.025,0v5.3H20.22V4.563h2.112V3.875H20.22V2.308h2.472v-.7Zm-4.429,0c-.563,0-.849.164-.849.488V6.422c0,.321.286.484.849.484h3.1c.576,0,.868-.163.868-.484V2.094c0-.324-.292-.488-.868-.488Zm-4.1,2.361v.477L11.84,6.907h1.49l-1.575-2.4h.059a4.855,4.855,0,0,0,.869-.049c.272-.065.41-.211.41-.434V2.094c0-.324-.29-.488-.861-.488H8.439v5.3H9.868V2.288h1.8V3.967ZM3.5,1.607v5.3H4.927V4.986H7.241c.579,0,.873-.166.873-.494v-2.4c0-.324-.294-.488-.873-.488Zm38.949,4.62H40.488V2.288h1.959V6.225Zm-25.545,0H14.944V2.288H16.9V6.225ZM52.574,5.22h-1.4l.7-2.39.7,2.389Zm-45.9-.914H4.927V2.288H6.673V4.3Z" transform="translate(47 37)" fill="#fff"/><g transform="translate(47.009 20.697)"><path d="M34.868,0H29.627V-15.283h5.241Z" transform="translate(26.277 15.303)" fill="#fff"/><path d="M27.1,0H20.878L15.75-6.816V0H9.941V-15.283H15.75v6.465l4.489-6.465h6.188v.107L20.936-7.92Z" transform="translate(9.39 15.303)" fill="#fff"/><path d="M20.905,0ZM36.22,0H30.446l-.812-1.9H24.576L23.764,0H18.008V-.039L23.239-15.3h7.784ZM29.065-4.863,27.1-11.758,25.111-4.863Z" transform="translate(-18.008 15.303)" fill="#fff"/><path d="M20.905,0ZM36.22,0H30.446l-.812-1.9H24.576L23.764,0H18.008V-.039L23.239-15.3h7.784ZM29.065-4.863,27.1-11.758,25.111-4.863Z" transform="translate(19.121 15.303)" fill="#fff"/></g></g></g></g></svg>